<svg width="148" height="148" viewBox="0 0 148 148" fill="none" xmlns="http://www.w3.org/2000/svg">
<g clip-path="url(#clip0_1222_6713)">
<rect width="148" height="148" rx="32" fill="url(#paint0_linear_1222_6713)"/>
<g filter="url(#filter0_f_1222_6713)" style="mix-blend-mode:color-dodge">
<circle cx="84.6953" cy="71.3984" r="38.4453" fill="#000594"/>
</g>
<path d="M74.0664 46.6836C113.47 46.8633 123.129 53.8497 123.129 84.7559C123.129 115.478 101.305 122.565 74.0664 122.824C46.8274 122.565 25.0039 115.478 25.0039 84.7559C25.0039 53.8497 34.6632 46.8626 74.0664 46.6836ZM74.0977 52.2666C40.473 52.4194 32.2305 58.3813 32.2305 84.7549C32.2305 110.972 50.8532 117.02 74.0977 117.241C97.342 117.02 115.965 110.971 115.965 84.7549C115.965 58.3813 107.723 52.4199 74.0977 52.2666Z" fill="white"/>
<path fill-rule="evenodd" clip-rule="evenodd" d="M84.6223 20.9566C88.0846 28.3523 97.605 48.6229 97.5584 47.8323C97.5012 46.8661 91.7052 49.4434 91.7052 49.4434L82.7591 21.8543C82.4456 21.9235 82.1203 21.9601 81.7875 21.9601C79.2376 21.9601 77.1701 19.8267 77.1701 17.1949C77.1701 14.5631 79.2369 12.4297 81.7875 12.4297C84.3375 12.4297 86.405 14.5631 86.405 17.1949C86.4043 18.7241 85.7063 20.0842 84.6223 20.9566Z" fill="white"/>
<path fill-rule="evenodd" clip-rule="evenodd" d="M103.682 28.2686C100.819 34.384 92.9476 51.1444 92.9862 50.4903C93.0334 49.6911 97.8253 51.8218 97.8253 51.8218L105.222 29.0106C105.481 29.0678 105.75 29.0985 106.026 29.0985C108.134 29.0985 109.844 27.335 109.844 25.1591C109.844 22.9831 108.135 21.219 106.026 21.219C103.917 21.219 102.209 22.9824 102.209 25.1591C102.209 26.4227 102.785 27.548 103.682 28.2686Z" fill="white"/>
<path fill-rule="evenodd" clip-rule="evenodd" d="M44.0097 115.535C43.8813 116.241 42.4692 128.955 43.3676 129.596C44.2666 130.238 48.2472 117.075 48.2472 117.075L44.0097 115.535Z" fill="white"/>
<path fill-rule="evenodd" clip-rule="evenodd" d="M101.796 116.122C101.925 116.828 103.337 129.541 102.438 130.183C101.539 130.825 97.5586 117.662 97.5586 117.662L101.796 116.122Z" fill="white"/>
<path d="M0 109.844C2.60656 115.057 7.93477 118.35 13.7632 118.35H70.5211C75.733 118.35 79.958 122.575 79.958 127.787V137.112C79.958 142.184 83.3361 146.635 88.2211 148H0V109.844Z" fill="url(#paint1_linear_1222_6713)"/>
<path d="M29.8255 140.094H17.8941L21.5698 136.28C22.5396 135.271 23.2996 134.42 23.85 133.725C24.4003 133.017 24.8066 132.421 25.0687 131.936C25.3438 131.452 25.5142 131.058 25.5797 130.757C25.6452 130.456 25.678 130.2 25.678 129.99C25.678 129.768 25.6387 129.551 25.5601 129.342C25.4945 129.132 25.3897 128.949 25.2456 128.791C25.1014 128.621 24.9245 128.49 24.7148 128.398C24.5183 128.293 24.2824 128.241 24.0072 128.241C23.4831 128.241 23.0703 128.411 22.7689 128.752C22.4806 129.093 22.3364 129.519 22.3364 130.03C22.3364 130.174 22.3561 130.384 22.3954 130.659H18.189C18.189 129.794 18.3266 129.008 18.6018 128.3C18.89 127.592 19.2897 126.983 19.8008 126.472C20.3118 125.961 20.9146 125.568 21.6092 125.293C22.3168 125.017 23.0899 124.88 23.9286 124.88C24.7542 124.88 25.5142 125.011 26.2087 125.273C26.9163 125.535 27.5257 125.902 28.0368 126.374C28.5478 126.845 28.9475 127.409 29.2358 128.064C29.5241 128.706 29.6682 129.407 29.6682 130.167C29.6682 130.98 29.4913 131.733 29.1375 132.428C28.7968 133.109 28.2464 133.81 27.4864 134.531L25.0293 136.831H29.8255V140.094ZM34.9103 132.664C34.9103 133.319 34.9693 133.915 35.0872 134.452C35.2051 134.99 35.3689 135.455 35.5786 135.848C35.8014 136.241 36.0635 136.549 36.3649 136.772C36.6663 136.982 37.007 137.086 37.387 137.086C37.7539 137.086 38.0881 136.982 38.3895 136.772C38.704 136.549 38.966 136.241 39.1757 135.848C39.3854 135.455 39.5492 134.99 39.6671 134.452C39.785 133.915 39.844 133.319 39.844 132.664C39.844 132.022 39.785 131.432 39.6671 130.895C39.5492 130.344 39.3854 129.879 39.1757 129.499C38.966 129.106 38.704 128.805 38.3895 128.595C38.0881 128.372 37.7539 128.261 37.387 128.261C37.007 128.261 36.6663 128.372 36.3649 128.595C36.0635 128.805 35.8014 129.106 35.5786 129.499C35.3689 129.879 35.2051 130.344 35.0872 130.895C34.9693 131.432 34.9103 132.022 34.9103 132.664ZM31.097 132.664C31.097 131.484 31.2477 130.416 31.5491 129.46C31.8636 128.49 32.296 127.664 32.8464 126.983C33.4099 126.302 34.0716 125.777 34.8317 125.411C35.6048 125.031 36.4566 124.84 37.387 124.84C38.3043 124.84 39.1495 125.031 39.9226 125.411C40.6958 125.777 41.3575 126.302 41.9079 126.983C42.4583 127.664 42.8842 128.49 43.1856 129.46C43.5001 130.416 43.6573 131.484 43.6573 132.664C43.6573 133.843 43.5001 134.918 43.1856 135.887C42.8842 136.844 42.4583 137.669 41.9079 138.364C41.3575 139.045 40.6958 139.576 39.9226 139.956C39.1495 140.323 38.3043 140.507 37.387 140.507C36.4566 140.507 35.6048 140.323 34.8317 139.956C34.0716 139.576 33.4099 139.045 32.8464 138.364C32.296 137.669 31.8636 136.844 31.5491 135.887C31.2477 134.918 31.097 133.843 31.097 132.664ZM56.5457 140.094H44.6143L48.2901 136.28C49.2598 135.271 50.0198 134.42 50.5702 133.725C51.1206 133.017 51.5268 132.421 51.7889 131.936C52.0641 131.452 52.2344 131.058 52.2999 130.757C52.3655 130.456 52.3982 130.2 52.3982 129.99C52.3982 129.768 52.3589 129.551 52.2803 129.342C52.2148 129.132 52.1099 128.949 51.9658 128.791C51.8216 128.621 51.6447 128.49 51.4351 128.398C51.2385 128.293 51.0026 128.241 50.7274 128.241C50.2033 128.241 49.7905 128.411 49.4891 128.752C49.2008 129.093 49.0567 129.519 49.0567 130.03C49.0567 130.174 49.0763 130.384 49.1156 130.659H44.9092C44.9092 129.794 45.0468 129.008 45.322 128.3C45.6103 127.592 46.0099 126.983 46.521 126.472C47.0321 125.961 47.6349 125.568 48.3294 125.293C49.037 125.017 49.8101 124.88 50.6488 124.88C51.4744 124.88 52.2344 125.011 52.9289 125.273C53.6366 125.535 54.2459 125.902 54.757 126.374C55.268 126.845 55.6677 127.409 55.956 128.064C56.2443 128.706 56.3884 129.407 56.3884 130.167C56.3884 130.98 56.2115 131.733 55.8577 132.428C55.517 133.109 54.9666 133.81 54.2066 134.531L51.7496 136.831H56.5457V140.094ZM68.0188 125.273L63.8124 130.108H63.891C64.2579 129.886 64.5593 129.755 64.7952 129.715C65.031 129.663 65.2407 129.637 65.4242 129.637C66.1449 129.637 66.8067 129.774 67.4094 130.049C68.0122 130.325 68.5364 130.705 68.9819 131.189C69.4275 131.661 69.7748 132.218 70.0237 132.86C70.2727 133.502 70.3972 134.19 70.3972 134.924C70.3972 135.71 70.2531 136.444 69.9648 137.126C69.6765 137.794 69.2571 138.384 68.7068 138.895C68.1695 139.393 67.5143 139.786 66.7411 140.074C65.968 140.362 65.0966 140.507 64.1269 140.507C63.144 140.507 62.2661 140.362 61.4929 140.074C60.7198 139.786 60.058 139.393 59.5076 138.895C58.9704 138.397 58.5576 137.82 58.2693 137.165C57.981 136.497 57.8369 135.789 57.8369 135.042C57.8369 134.203 58.0203 133.299 58.3872 132.33C58.7672 131.347 59.3438 130.384 60.117 129.44L63.5568 125.273H68.0188ZM61.6502 135.003C61.6502 135.343 61.7157 135.665 61.8467 135.966C61.9778 136.254 62.1547 136.51 62.3774 136.733C62.6002 136.955 62.8557 137.132 63.144 137.263C63.4454 137.394 63.7665 137.46 64.1072 137.46C64.4479 137.46 64.7624 137.394 65.0507 137.263C65.3521 137.132 65.6142 136.955 65.8369 136.733C66.0597 136.51 66.2366 136.254 66.3677 135.966C66.4987 135.665 66.5642 135.343 66.5642 135.003C66.5642 134.662 66.4987 134.348 66.3677 134.059C66.2366 133.758 66.0597 133.496 65.8369 133.273C65.6142 133.05 65.3521 132.873 65.0507 132.742C64.7624 132.611 64.4479 132.546 64.1072 132.546C63.7665 132.546 63.4454 132.611 63.144 132.742C62.8557 132.873 62.6002 133.05 62.3774 133.273C62.1547 133.496 61.9778 133.758 61.8467 134.059C61.7157 134.348 61.6502 134.662 61.6502 135.003Z" fill="white"/>
<path d="M46.119 74.1249V96.75H40.2377V74.1249H46.119ZM56.7269 84.5073H58.6773C60.8378 84.5073 61.918 83.5671 61.918 81.6866C61.918 79.8062 60.8378 78.866 58.6773 78.866H56.7269V84.5073ZM56.7269 96.75H50.8456V74.1249H60.2076C62.7482 74.1249 64.6886 74.7851 66.0289 76.1054C67.3893 77.4257 68.0694 79.2861 68.0694 81.6866C68.0694 84.0872 67.3893 85.9476 66.0289 87.2679C64.6886 88.5882 62.7482 89.2483 60.2076 89.2483H56.7269V96.75ZM79.764 79.1061V96.75H73.8827V79.1061H69.0517V74.1249H84.5951V79.1061H79.764ZM92.492 74.1249L97.9533 87.898L103.444 74.1249H109.836L100.294 96.75H95.6127L86.1006 74.1249H92.492Z" fill="url(#paint2_linear_1222_6713)"/>
<g filter="url(#filter1_f_1222_6713)">
<circle cx="36.4219" cy="32.375" r="4.625" fill="#FF0002"/>
</g>
<rect x="25.4182" y="24.8401" width="50.8219" height="15.6188" rx="7.80941" fill="white"/>
<rect x="25.4182" y="24.8401" width="50.8219" height="15.6188" rx="7.80941" stroke="#E20004" stroke-width="0.539608"/>
<circle cx="36.4803" cy="32.6495" r="2.69804" fill="url(#paint3_radial_1222_6713)"/>
<path d="M42.8443 36.6495V28.6653H44.5153V35.2718H48.0675V36.6495H42.8443ZM49.5836 36.6495V28.6653H51.2546V36.6495H49.5836ZM55.2826 36.6495L52.6212 28.6653H54.4969L56.262 34.7904H56.3616L58.1211 28.6653H60.0024L57.341 36.6495H55.2826ZM61.369 36.6495V28.6653H66.6587V30.043H63.04V31.9685H66.4539V33.2522H63.04V35.2718H66.6587V36.6495H61.369Z" fill="#E20004"/>
</g>
<defs>
<filter id="filter0_f_1222_6713" x="-40.4688" y="-53.7656" width="250.328" height="250.328" filterUnits="userSpaceOnUse" color-interpolation-filters="sRGB">
<feFlood flood-opacity="0" result="BackgroundImageFix"/>
<feBlend mode="normal" in="SourceGraphic" in2="BackgroundImageFix" result="shape"/>
<feGaussianBlur stdDeviation="43.3594" result="effect1_foregroundBlur_1222_6713"/>
</filter>
<filter id="filter1_f_1222_6713" x="11.5625" y="7.51562" width="49.7188" height="49.7188" filterUnits="userSpaceOnUse" color-interpolation-filters="sRGB">
<feFlood flood-opacity="0" result="BackgroundImageFix"/>
<feBlend mode="normal" in="SourceGraphic" in2="BackgroundImageFix" result="shape"/>
<feGaussianBlur stdDeviation="10.1172" result="effect1_foregroundBlur_1222_6713"/>
</filter>
<linearGradient id="paint0_linear_1222_6713" x1="148" y1="7.16746e-06" x2="27.75" y2="139.762" gradientUnits="userSpaceOnUse">
<stop stop-color="#2E3192"/>
<stop offset="1" stop-color="#060617"/>
</linearGradient>
<linearGradient id="paint1_linear_1222_6713" x1="44.1105" y1="109.844" x2="44.1105" y2="148" gradientUnits="userSpaceOnUse">
<stop stop-color="#E20004"/>
<stop offset="1" stop-color="#9B0003"/>
</linearGradient>
<linearGradient id="paint2_linear_1222_6713" x1="73.8672" y1="64.75" x2="73.8672" y2="104.75" gradientUnits="userSpaceOnUse">
<stop stop-color="white"/>
<stop offset="1" stop-color="#EAEAEA"/>
</linearGradient>
<radialGradient id="paint3_radial_1222_6713" cx="0" cy="0" r="1" gradientUnits="userSpaceOnUse" gradientTransform="translate(36.4803 32.6495) rotate(90) scale(2.69804)">
<stop stop-color="#E20004"/>
<stop offset="1" stop-color="#FF2529"/>
</radialGradient>
<clipPath id="clip0_1222_6713">
<rect width="148" height="148" rx="32" fill="white"/>
</clipPath>
</defs>
</svg>
